
<region>
sample=..\Samples\nail\cithara_e4_nail_rr1.wav
lokey=52
hikey=53
seq_length=4
tune=9
pitch_keycenter=52

<region>
sample=..\Samples\nail\cithara_e4_nail_rr2.wav
lokey=52
hikey=53
seq_length=4
seq_position=2
tune=9
pitch_keycenter=52

<region>
sample=..\Samples\nail\cithara_e4_nail_rr3.wav
lokey=52
hikey=53
seq_length=4
seq_position=3
tune=9
pitch_keycenter=52

<region>
sample=..\Samples\nail\cithara_e4_nail_rr4.wav
lokey=52
hikey=53
seq_length=4
seq_position=4
tune=9
pitch_keycenter=52

<region>
sample=..\Samples\nail\cithara_gb4_nail_rr1.wav
lokey=54
hikey=55
seq_length=4
tune=15
pitch_keycenter=54

<region>
sample=..\Samples\nail\cithara_gb4_nail_rr2.wav
lokey=54
hikey=55
seq_length=4
seq_position=2
tune=15
pitch_keycenter=54

<region>
sample=..\Samples\nail\cithara_gb4_nail_rr3.wav
lokey=54
hikey=55
seq_length=4
seq_position=3
tune=15
pitch_keycenter=54

<region>
sample=..\Samples\nail\cithara_gb4_nail_rr4.wav
lokey=54
hikey=55
seq_length=4
seq_position=4
tune=15
pitch_keycenter=54

<region>
sample=..\Samples\nail\cithara_ab4_nail_rr1.wav
lokey=56
hikey=57
seq_length=4
pitch_keycenter=56

<region>
sample=..\Samples\nail\cithara_ab4_nail_rr2.wav
lokey=56
hikey=57
seq_length=4
seq_position=2
pitch_keycenter=56

<region>
sample=..\Samples\nail\cithara_ab4_nail_rr3.wav
lokey=56
hikey=57
seq_length=4
seq_position=3
pitch_keycenter=56

<region>
sample=..\Samples\nail\cithara_ab4_nail_rr4.wav
lokey=56
hikey=57
seq_length=4
seq_position=4
pitch_keycenter=56

<region>
sample=..\Samples\nail\cithara_b4_nail_rr1.wav
lokey=58
hikey=60
seq_length=4
tune=10
pitch_keycenter=59

<region>
sample=..\Samples\nail\cithara_b4_nail_rr2.wav
lokey=58
hikey=60
seq_length=4
seq_position=2
tune=10
pitch_keycenter=59

<region>
sample=..\Samples\nail\cithara_b4_nail_rr3.wav
lokey=58
hikey=60
seq_length=4
seq_position=3
tune=10
pitch_keycenter=59

<region>
sample=..\Samples\nail\cithara_b4_nail_rr4.wav
lokey=58
hikey=60
seq_length=4
seq_position=4
tune=10
pitch_keycenter=59

<region>
sample=..\Samples\nail\cithara_db5_nail_rr1.wav
lokey=61
hikey=62
seq_length=4
tune=22
pitch_keycenter=61

<region>
sample=..\Samples\nail\cithara_db5_nail_rr2.wav
lokey=61
hikey=62
seq_length=4
seq_position=2
tune=22
pitch_keycenter=61

<region>
sample=..\Samples\nail\cithara_db5_nail_rr3.wav
lokey=61
hikey=62
seq_length=4
seq_position=3
tune=22
pitch_keycenter=61

<region>
sample=..\Samples\nail\cithara_db5_nail_rr4.wav
lokey=61
hikey=62
seq_length=4
seq_position=4
tune=22
pitch_keycenter=61

<region>
sample=..\Samples\nail\cithara_eb5_nail_rr1.wav
lokey=63
hikey=64
seq_length=4
tune=13
pitch_keycenter=63

<region>
sample=..\Samples\nail\cithara_eb5_nail_rr2.wav
lokey=63
hikey=64
seq_length=4
seq_position=2
tune=13
pitch_keycenter=63

<region>
sample=..\Samples\nail\cithara_eb5_nail_rr3.wav
lokey=63
hikey=64
seq_length=4
seq_position=3
tune=13
pitch_keycenter=63

<region>
sample=..\Samples\nail\cithara_eb5_nail_rr4.wav
lokey=63
hikey=64
seq_length=4
seq_position=4
tune=13
pitch_keycenter=63

<region>
sample=..\Samples\nail\cithara_e5_nail_rr1.wav
lokey=64
hikey=65
seq_length=4
tune=18
pitch_keycenter=64

<region>
sample=..\Samples\nail\cithara_e5_nail_rr2.wav
lokey=64
hikey=65
seq_length=4
seq_position=2
tune=18
pitch_keycenter=64

<region>
sample=..\Samples\nail\cithara_e5_nail_rr3.wav
lokey=64
hikey=65
seq_length=4
seq_position=3
tune=18
pitch_keycenter=64

<region>
sample=..\Samples\nail\cithara_e5_nail_rr4.wav
lokey=64
hikey=65
seq_length=4
seq_position=4
tune=18
pitch_keycenter=64

<region>
sample=..\Samples\nail\cithara_gb5_nail_rr1.wav
lokey=66
hikey=67
seq_length=4
tune=20
pitch_keycenter=66

<region>
sample=..\Samples\nail\cithara_gb5_nail_rr2.wav
lokey=66
hikey=67
seq_length=4
seq_position=2
tune=20
pitch_keycenter=66

<region>
sample=..\Samples\nail\cithara_gb5_nail_rr3.wav
lokey=66
hikey=67
seq_length=4
seq_position=3
tune=20
pitch_keycenter=66

<region>
sample=..\Samples\nail\cithara_gb5_nail_rr4.wav
lokey=66
hikey=67
seq_length=4
seq_position=4
tune=20
pitch_keycenter=66

<region>
sample=..\Samples\nail\cithara_ab5_nail_rr1.wav
lokey=68
hikey=69
seq_length=4
tune=16
pitch_keycenter=68

<region>
sample=..\Samples\nail\cithara_ab5_nail_rr2.wav
lokey=68
hikey=69
seq_length=4
seq_position=2
tune=16
pitch_keycenter=68

<region>
sample=..\Samples\nail\cithara_ab5_nail_rr3.wav
lokey=68
hikey=69
seq_length=4
seq_position=3
tune=16
pitch_keycenter=68

<region>
sample=..\Samples\nail\cithara_ab5_nail_rr4.wav
lokey=68
hikey=69
seq_length=4
seq_position=4
tune=16
pitch_keycenter=68

<region>
sample=..\Samples\nail\cithara_b5_nail_rr1.wav
lokey=70
hikey=72
seq_length=4
tune=17
pitch_keycenter=69

<region>
sample=..\Samples\nail\cithara_b5_nail_rr2.wav
lokey=70
hikey=72
seq_length=4
seq_position=2
tune=17
pitch_keycenter=69

<region>
sample=..\Samples\nail\cithara_b5_nail_rr3.wav
lokey=70
hikey=72
seq_length=4
seq_position=3
tune=17
pitch_keycenter=69

<region>
sample=..\Samples\nail\cithara_b5_nail_rr4.wav
lokey=70
hikey=72
seq_length=4
seq_position=4
tune=17
pitch_keycenter=69
